# xmcd CD database file generated by Grip 2.5
# 
# Track frame offsets:
#       150
#       4984
#       9063
#       14086
#       21852
#       24404
#       28448
#       32716
#       35954
#       39160
#       56260
#       75442
#       94035
#       110487
#       128792
#       146056
#       162554
#       180454
#       200408
#       216911
#       231126
#       244457
# 
# Disc length: 3439 seconds
# 
# Revision: 3
# Processed by: cddbd v1.4b41PL1 Copyright (c) Steve Scherf et al.
# Submitted via: Grip 2.5
# 
DISCID=270d6d16
DTITLE=Freaky Free - Unknown Disc
DYEAR=1900
DGENRE=
TTITLE0=sad princess - Boombox
TTITLE1=to funky - Boombox
TTITLE2=blues is a woman - HB and DM
TTITLE3=rubber doll - HB and DM
TTITLE4=down with love - SOS Sister
TTITLE5=sugar - SOS Sister
TTITLE6=big jhon is my name - Soulsociaty
TTITLE7=funky nassa - Soulsociaty
TTITLE8=pleasure - Soulsociaty
TTITLE9=oh something - Mechanical Man
TTITLE10=chilloutman - Lucky Loop 2
TTITLE11=subway - Cosmic Collector
TTITLE12=work you body - Elekctiker
TTITLE13=monogam - Elekctriker
TTITLE14=ltp jungel - Pure Plasma
TTITLE15=golden eye - Elekctriker
TTITLE16=killergroove - Lucky Loop 
TTITLE17=circle of live - Lucky Loop 2
TTITLE18=nanana - Mechanical Man
TTITLE19=kiss me - Elekctriker
TTITLE20=blues is a woman (2) - HB and DM
TTITLE21=sie lagen wie - Herz and Schmerz
EXTD=
EXTT0=
EXTT1=
EXTT2=
EXTT3=
EXTT4=
EXTT5=
EXTT6=
EXTT7=
EXTT8=
EXTT9=
EXTT10=
EXTT11=
EXTT12=
EXTT13=
EXTT14=
EXTT15=
EXTT16=
EXTT17=
EXTT18=
EXTT19=
EXTT20=
EXTT21=
PLAYORDER=
